<?xml version="1.0" encoding="utf-8"?>
<!-- Generator: Adobe Illustrator 19.0.1, SVG Export Plug-In . SVG Version: 6.00 Build 0)  -->
<svg version="1.1" id="Layer_1" xmlns="http://www.w3.org/2000/svg" xmlns:xlink="http://www.w3.org/1999/xlink" x="0px" y="0px"
	 viewBox="106 -206 512 512" enable-background="new 106 -206 512 512" xml:space="preserve">
<path d="M543-131c-100-100-262-100-362,0C81-31.1,81,131,181,231s262,100,362,0C643,131.1,643-31,543-131z M497.8,185.7
	c-75,75-196.5,75-271.5,0c-75-74.9-75-196.5,0-271.5c74.9-75,196.5-75,271.5,0S572.8,110.8,497.8,185.7z"/>
<circle fill="#FFFFFF" cx="362" cy="50" r="227"/>
<polygon points="475.2,-17.9 430,-63.2 362,4.7 294.2,-63.2 248.9,-17.9 316.8,50 248.8,117.8 294.2,163.1 362,95.2 430,163.2 
	475.2,117.9 407.3,50 "/>
</svg>
