<?xml version="1.0" encoding="utf-8"?>
<!-- Generator: Adobe Illustrator 19.0.1, SVG Export Plug-In . SVG Version: 6.00 Build 0)  -->
<svg version="1.1" id="Layer_1" xmlns="http://www.w3.org/2000/svg" xmlns:xlink="http://www.w3.org/1999/xlink" x="0px" y="0px"
	 viewBox="0 0 500 500" enable-background="new 0 0 500 500" xml:space="preserve">
<g display="none">
	<path display="inline" fill="#FFFFFF" d="M121.5,135.1c-4.3-4.2-10.2-6.3-15.8-6.3c-14.4,0-21.7,10.5-21.6,21.8
		c0,11.6,7.4,21.5,21.6,21.5c5.3,0,10.7-1.8,14.9-5.7v-13.7h-17.1v-3.3h20.7v18.3c-5.1,5.1-11.2,7.9-18.5,7.9
		c-16.7,0-25.3-11.6-25.3-25c-0.1-15.3,10.4-25.3,25.3-25.3c6.4,0,13,2.5,17.9,7.4L121.5,135.1z"/>
	<path display="inline" fill="#FFFFFF" d="M194.5,175h-5l-16.9-18.6h-13.4V175h-3.8v-49c7.2,0,14.4,0,21.6,0
		c10.6,0,16,7.6,16.1,15.3c0.1,8-5.2,15-15.9,15L194.5,175z M159.3,152.9h17.4c8.5,0,12.3-4.8,12.4-11.7c0.1-5.7-3.9-11.7-12-11.7
		h-17.8V152.9z"/>
	<path display="inline" fill="#FFFFFF" d="M226.2,148.6H255v3.4h-28.7v19.3h30.9v3.6h-34.7v-49h33.8v3.6h-30.1V148.6z"/>
	<path display="inline" fill="#FFFFFF" d="M325.8,135.1c-4.3-4.2-10.2-6.3-15.8-6.3c-14.4,0-21.7,10.5-21.6,21.8
		c0,11.6,7.4,21.5,21.6,21.5c5.3,0,10.7-1.8,14.9-5.7v-13.7h-17.1v-3.3h20.7v18.3c-5.1,5.1-11.2,7.9-18.5,7.9
		c-16.7,0-25.3-11.6-25.3-25c-0.1-15.3,10.4-25.3,25.3-25.3c6.4,0,13,2.5,17.9,7.4L325.8,135.1z"/>
	<path display="inline" fill="#FFFFFF" d="M125.7,230.5l-18.8,28.7h-1.3l-18.9-28.7V274H83v-49c1.8,0,2.7,0,4.5,0l18.8,28.6
		l18.6-28.6h4.6v49h-3.7V230.5z"/>
	<path display="inline" fill="#FFFFFF" d="M161.9,274v-49h3.7v49H161.9z"/>
	<path display="inline" fill="#FFFFFF" d="M201.9,225v45.4h27.6v3.6h-31.4v-49H201.9z"/>
	<path display="inline" fill="#FFFFFF" d="M262,247.6h28.7v3.4H262v19.3H293v3.6h-34.7v-49h33.8v3.6H262V247.6z"/>
	<path display="inline" fill="#FFFFFF" d="M356.2,234.5c-3.6-5.7-9.3-6.6-14.8-6.7c-5.7,0-14.8,2.1-14.8,9.9c0,6.2,6.7,7.7,15,9.2
		c9.5,1.8,19.3,3.5,19.3,14.1c-0.1,11.1-11.2,13.7-19.4,13.7c-7.6,0-16.3-3.2-20.1-10.6l3.4-1.7c3,6,10.7,8.9,16.7,8.9
		S357,269.7,357,261c0.1-7.4-8.1-9-16.1-10.5c-9-1.8-18.1-3.6-18.1-12.6c-0.2-10.4,10.6-13.6,18.6-13.6c7,0,13.1,1.1,17.9,8.3
		L356.2,234.5z"/>
	<path display="inline" fill="#FFFFFF" d="M123.4,366.2c-4.9,4.9-11.4,7.4-17.9,7.4c-16.5,0-25.1-11.6-25.2-24.8
		c-0.1-13.1,8.4-25.3,25.2-25.3c6.4,0,13,2.5,17.9,7.4l-2.6,2.2c-4.2-4.2-9.7-6.2-15.3-6.2c-14.3,0-21.6,10.1-21.6,21.8
		c0.1,11.5,7.4,21.4,21.6,21.4c5.5,0,11.1-2.1,15.3-6.2L123.4,366.2z"/>
	<path display="inline" fill="#FFFFFF" d="M201.2,348.6c-0.1,12.9-8.3,25.3-24.7,25.3s-24.7-12.5-24.7-25.4
		c0-13.2,8.2-25.2,24.7-25.2C193,323.3,201.3,335.4,201.2,348.6z M155.5,348.5c0.1,11.1,7.1,21.8,21,21.8c14,0,21.1-10.8,21.1-21.8
		c0-11.3-7-21.8-21.1-21.8S155.4,337,155.5,348.5z"/>
	<path display="inline" fill="#FFFFFF" d="M266.9,373v-22.3h-31.2V373h-3.8v-49h3.8v23.3h31.2V324h3.8v49H266.9z"/>
	<path display="inline" fill="#FFFFFF" d="M306.9,346.6h28.7v3.4h-28.7v19.3h30.9v3.6h-34.7v-49H337v3.6h-30.1V346.6z"/>
	<path display="inline" fill="#FFFFFF" d="M371,324l33,40.5V324h3.7v49h-1.5l-33-40.5V373h-3.8v-49H371z"/>
</g>
<g display="none">
</g>
<path fill="#FFFFFF" d="M500,500H0V0h500V500z M39.7,203v32h22.5v-5.6H45.7V203H39.7z M104.5,229.1h-18v-7.2h17.3v-5.6H86.5v-7.4h18
	V203h-24c0,10.7,0,21.4,0,32h24V229.1z M148.7,235h6.6L141,203h-6.6L120,235h6.5l2.7-6H146L148.7,235z M143.6,223.3h-11.9l5.9-13.6
	L143.6,223.3z M200.6,234.6l-9.7-10.9c6.1-1.2,8.1-5.7,8.1-10.1c0-5.5-4-10.6-11.5-10.6c-5.1,0-10.2,0-15.2,0V235h6v-10.7h5.8
	l9.3,10.7h7.2V234.6z M187.5,208.6c3.8,0,5.5,2.6,5.5,5.1s-1.6,5.1-5.5,5.1h-9.2v-10.2H187.5z M238.3,222.8L222.6,203h-4.9v32h6
	v-21.6l16.8,21.6v0h3.8v-32.1h-6V222.8z M315.3,235h6v-32h-6.9l-10,13.8l-10-13.8h-7v32h6v-23.3l10.2,13.9h1.2l10.4-13.9V235z
	 M356.2,202.3c-11.1,0-16.5,8.5-16.5,16.9c0,8.4,5.2,16.5,16.5,16.5s16.3-8.3,16.4-16.6C372.7,210.8,367.2,202.3,356.2,202.3z
	 M356.2,207.8c7.5,0,10.6,6,10.5,11.4c-0.1,5.3-2.9,10.9-10.5,10.9s-10.4-5.6-10.5-10.9C345.6,213.9,348.7,207.8,356.2,207.8z
	 M419.6,234.6l-9.7-10.9c6.1-1.2,8.1-5.7,8.1-10.1c0-5.5-4-10.6-11.5-10.6c-5.1,0-10.2,0-15.2,0V235h6v-10.7h5.8l9.3,10.7h7.2V234.6
	z M406.5,208.6c3.8,0,5.5,2.6,5.5,5.1s-1.6,5.1-5.5,5.1h-9.2v-10.2H406.5z M460.2,229.1h-18v-7.2h17.3v-5.6h-17.3v-7.4h18V203h-24
	c0,10.7,0,21.4,0,32h24V229.1z M93.5,307h6.6l-14.4-32h-6.6l-14.4,32h6.5l2.7-6h16.7L93.5,307z M88.4,295.4H76.5l5.9-13.6
	L88.4,295.4z M131.5,275c-5.1,0-10.2,0-15.2,0v32c5.1,0,10.1,0,15.2,0c6.6,0,12-2.3,12-9.4c0-2-1.4-6-5.1-7.1c3-1.3,4.2-3.7,4.2-6.2
	C142.5,277.8,137.8,275,131.5,275z M122.3,280.5h9.2c3.8,0,5,2.5,5,3.9c0,1.8-1.2,3.4-5,3.4h-9.2V280.5z M122.3,293.2h9.2
	c2.5,0,6,1.5,6,4.4c0,3-3.5,3.8-6,3.8h-9.2V293.2z M177.5,274.4c-11.1,0-16.5,8.5-16.5,16.9c0,8.4,5.2,16.5,16.5,16.5
	c11.2,0,16.3-8.3,16.4-16.6C194,282.8,188.5,274.4,177.5,274.4z M177.5,279.9c7.5,0,10.6,6,10.5,11.4c-0.1,5.3-2.9,10.9-10.5,10.9
	s-10.4-5.6-10.5-10.9C166.8,285.9,169.9,279.9,177.5,279.9z M234.6,275v18.3c0,5.5-2.8,8.8-7.8,8.8c-5,0-8.3-3.1-8.3-8.8V275h-6
	v18.3c0,9.6,6.5,14.3,14.2,14.3c8,0,13.9-4.8,13.9-14.3V275H234.6z M268.9,307h6v-26.5h10.2V275c-9.3,0-17.1,0-26.3,0v5.5h10.2V307z
	 M354.2,307.1h6v-32h-6.9l-10,13.8l-10-13.8h-7v32h6v-23.3l10.2,13.9h1.2l10.4-13.9V307.1z M404,301.1h-18v-7.2h17.3v-5.6H386v-7.4
	h18V275h-24c0,10.7,0,21.4,0,32h24V301.1z M423.3,303.7c0,4.8,7.3,4.8,7.3,0C430.6,298.9,423.3,298.9,423.3,303.7z M424,275v23.6h6
	V275H424z"/>
</svg>
