<?xml version="1.0" encoding="utf-8"?>
<!-- Generator: Adobe Illustrator 19.0.1, SVG Export Plug-In . SVG Version: 6.00 Build 0)  -->
<svg version="1.1" id="Layer_1" xmlns="http://www.w3.org/2000/svg" xmlns:xlink="http://www.w3.org/1999/xlink" x="0px" y="0px"
	 viewBox="100 -200 500 500" enable-background="new 100 -200 500 500" xml:space="preserve">
<rect x="104.7" y="-195.3" fill="none" stroke="#000000" stroke-width="10" stroke-miterlimit="10" width="490" height="490.7"/>
<g display="none">
	<path display="inline" fill="#FFFFFF" d="M221.5-64.9c-4.3-4.2-10.2-6.3-15.8-6.3c-14.4,0-21.7,10.5-21.6,21.8
		c0,11.6,7.4,21.5,21.6,21.5c5.3,0,10.7-1.8,14.9-5.7v-13.7h-17.1v-3.3h20.7v18.3c-5.1,5.1-11.2,7.9-18.5,7.9
		c-16.7,0-25.3-11.6-25.3-25c-0.1-15.3,10.4-25.3,25.3-25.3c6.4,0,13,2.5,17.9,7.4L221.5-64.9z"/>
	<path display="inline" fill="#FFFFFF" d="M294.5-25h-5l-16.9-18.6h-13.4V-25h-3.8v-49c7.2,0,14.4,0,21.6,0c10.6,0,16,7.6,16.1,15.3
		c0.1,8-5.2,15-15.9,15L294.5-25z M259.3-47.1h17.4c8.5,0,12.3-4.8,12.4-11.7c0.1-5.7-3.9-11.7-12-11.7h-17.8V-47.1L259.3-47.1z"/>
	<path display="inline" fill="#FFFFFF" d="M326.2-51.4H355v3.4h-28.7v19.3h30.9v3.6h-34.7v-49h33.8v3.6h-30.1V-51.4L326.2-51.4z"/>
	<path display="inline" fill="#FFFFFF" d="M425.8-64.9c-4.3-4.2-10.2-6.3-15.8-6.3c-14.4,0-21.7,10.5-21.6,21.8
		c0,11.6,7.4,21.5,21.6,21.5c5.3,0,10.7-1.8,14.9-5.7v-13.7h-17.1v-3.3h20.7v18.3c-5.1,5.1-11.2,7.9-18.5,7.9
		c-16.7,0-25.3-11.6-25.3-25c-0.1-15.3,10.4-25.3,25.3-25.3c6.4,0,13,2.5,17.9,7.4L425.8-64.9z"/>
	<path display="inline" fill="#FFFFFF" d="M225.7,30.5l-18.8,28.7h-1.3l-18.9-28.7V74H183V25c1.8,0,2.7,0,4.5,0l18.8,28.6L224.9,25
		h4.6v49h-3.7V30.5H225.7z"/>
	<path display="inline" fill="#FFFFFF" d="M261.9,74V25h3.7v49H261.9z"/>
	<path display="inline" fill="#FFFFFF" d="M301.9,25v45.4h27.6V74h-31.4V25H301.9z"/>
	<path display="inline" fill="#FFFFFF" d="M362,47.6h28.7V51H362v19.3h31v3.6h-34.7v-49h33.8v3.6H362V47.6z"/>
	<path display="inline" fill="#FFFFFF" d="M456.2,34.5c-3.6-5.7-9.3-6.6-14.8-6.7c-5.7,0-14.8,2.1-14.8,9.9c0,6.2,6.7,7.7,15,9.2
		c9.5,1.8,19.3,3.5,19.3,14.1c-0.1,11.1-11.2,13.7-19.4,13.7c-7.6,0-16.3-3.2-20.1-10.6l3.4-1.7c3,6,10.7,8.9,16.7,8.9
		S457,69.7,457,61c0.1-7.4-8.1-9-16.1-10.5c-9-1.8-18.1-3.6-18.1-12.6c-0.2-10.4,10.6-13.6,18.6-13.6c7,0,13.1,1.1,17.9,8.3
		L456.2,34.5z"/>
	<path display="inline" fill="#FFFFFF" d="M223.4,166.2c-4.9,4.9-11.4,7.4-17.9,7.4c-16.5,0-25.1-11.6-25.2-24.8
		c-0.1-13.1,8.4-25.3,25.2-25.3c6.4,0,13,2.5,17.9,7.4l-2.6,2.2c-4.2-4.2-9.7-6.2-15.3-6.2c-14.3,0-21.6,10.1-21.6,21.8
		c0.1,11.5,7.4,21.4,21.6,21.4c5.5,0,11.1-2.1,15.3-6.2L223.4,166.2z"/>
	<path display="inline" fill="#FFFFFF" d="M301.2,148.6c-0.1,12.9-8.3,25.3-24.7,25.3s-24.7-12.5-24.7-25.4
		c0-13.2,8.2-25.2,24.7-25.2S301.3,135.4,301.2,148.6z M255.5,148.5c0.1,11.1,7.1,21.8,21,21.8c14,0,21.1-10.8,21.1-21.8
		c0-11.3-7-21.8-21.1-21.8S255.4,137,255.5,148.5z"/>
	<path display="inline" fill="#FFFFFF" d="M366.9,173v-22.3h-31.2V173h-3.8v-49h3.8v23.3h31.2V124h3.8v49H366.9z"/>
	<path display="inline" fill="#FFFFFF" d="M406.9,146.6h28.7v3.4h-28.7v19.3h30.9v3.6h-34.7v-49H437v3.6h-30.1V146.6z"/>
	<path display="inline" fill="#FFFFFF" d="M471,124l33,40.5V124h3.7v49h-1.5l-33-40.5V173h-3.8v-49H471z"/>
</g>
<g>
	<path d="M204.1-68.5c-3.5-3.3-8.7-5.2-13.2-5.2c-11.1,0-17.8,8.4-17.8,19.1c0,8.5,5,17.3,17.8,17.3c4.1,0,7.6-0.9,11.7-4.1v-9.2
		h-13.2v-8.7h22.2v21.8c-5.1,5.8-11.5,9.3-20.6,9.3c-19.5,0-27.4-12.8-27.4-26.4c0-14.6,9.1-28,27.4-28c7,0,13.9,2.7,19.2,7.9
		L204.1-68.5z"/>
	<path d="M287.7-29.3h-11.6L261-46.6h-9.4v17.3h-9.8v-51.9c8.2,0,16.4,0.1,24.6,0.1C278.6-81,285-72.9,285-63.9
		c0,7.1-3.3,14.3-13.1,16.3l15.7,17.7v0.6H287.7z M251.6-72v16.6h14.9c6.2,0,8.9-4.1,8.9-8.3c0-4.1-2.7-8.3-8.9-8.3H251.6z"/>
	<path d="M353.3-29.3h-38.8c0-17.2,0-34.6,0-51.8h38.8v9.5h-29.1v11.9h28v9.1h-28v11.7h29.1V-29.3z"/>
	<path d="M422.3-68.5c-3.5-3.3-8.7-5.2-13.2-5.2c-11.1,0-17.8,8.4-17.8,19.1c0,8.5,5,17.3,17.8,17.3c4.1,0,7.6-0.9,11.7-4.1v-9.2
		h-13.2v-8.7h22.2v21.8c-5.1,5.8-11.5,9.3-20.6,9.3c-19.5,0-27.4-12.8-27.4-26.4c0-14.6,9.1-28,27.4-28c7,0,13.9,2.7,19.2,7.9
		L422.3-68.5z"/>
	<path d="M210.8,37l-16.9,22.5H192l-16.5-22.6v37.7h-9.8V22.8h11.2L193.2,45l16.2-22.3h11.2v51.8h-9.8L210.8,37L210.8,37z"/>
	<path d="M252.7,74.5V22.7h9.7v51.8H252.7z"/>
	<path d="M304.3,22.7v42.8h26.6v9h-36.4V22.7H304.3z"/>
	<path d="M399.4,74.5h-38.8c0-17.2,0-34.6,0-51.8h38.8v9.5h-29.1v11.9h28v9.1h-28v11.7h29.1V74.5z"/>
	<path d="M463.4,35.2c-1.8-3-6.7-5.8-12.3-5.8c-7.3,0-10.7,3-10.7,6.9c0,4.5,5.3,5.8,11.5,6.5c10.8,1.3,20.9,4.1,20.9,16.5
		c0,11.5-10.2,16.5-21.8,16.5c-10.6,0-18.7-3.3-22.6-12.7l8.1-4.2c2.3,5.7,8.3,8.2,14.6,8.2c6.1,0,11.9-2.1,11.9-7.8
		c0-4.9-5.1-6.9-12-7.6c-10.6-1.3-20.4-4.1-20.4-15.7c0-10.7,10.5-15,20.1-15.1c8.1,0,16.4,2.3,20.4,10.3L463.4,35.2z"/>
	<path d="M211.3,171.8c-5.3,5.3-12.2,7.7-19.7,7.7c-19.2,0-27.4-13.2-27.5-26.7s8.7-27.3,27.5-27.3c7,0,13.7,2.7,19,7.9l-6.5,6.3
		c-3.4-3.3-8-4.9-12.5-4.9c-12.5,0-17.9,9.3-17.8,18c0.1,8.6,5,17.5,17.8,17.5c4.5,0,9.6-1.9,13-5.3L211.3,171.8z"/>
	<path d="M290.6,152.7c-0.1,13.4-8.4,26.8-26.6,26.8s-26.6-13.1-26.6-26.7s8.7-27.3,26.6-27.3C281.9,125.4,290.8,139.1,290.6,152.7z
		 M247,152.9c0.2,8.5,4.8,17.6,17,17.6c12.2,0,16.8-9.2,16.9-17.7c0.1-8.7-4.7-18.5-16.9-18.5C251.8,134.3,246.8,144.2,247,152.9z"
		/>
	<path d="M356,178.3v-20.9h-25.5v20.9h-9.8v-51.8h9.8v21.8H356v-21.8h9.7v51.8H356z"/>
	<path d="M436.5,178.3h-38.8c0-17.2,0-34.6,0-51.8h38.8v9.5h-29.1v11.9h28v9.1h-28v11.7h29.1V178.3z"/>
	<path d="M502.5,126.4h9.8v51.9h-6.1v0.1l-27.2-35v34.9h-9.8v-51.8h7.9l25.4,32.1L502.5,126.4L502.5,126.4z"/>
</g>
</svg>
