<?xml version="1.0" encoding="utf-8"?>
<!-- Generator: Adobe Illustrator 19.0.1, SVG Export Plug-In . SVG Version: 6.00 Build 0)  -->
<svg version="1.1" id="Layer_1" xmlns="http://www.w3.org/2000/svg" xmlns:xlink="http://www.w3.org/1999/xlink" x="0px" y="0px"
	 viewBox="0 0 500 500" enable-background="new 0 0 500 500" xml:space="preserve">
<rect x="4.7" y="4.7" fill="none" stroke="#FFFFFF" stroke-width="10" stroke-miterlimit="10" width="490" height="490.7"/>
<g display="none">
	<path display="inline" fill="#FFFFFF" d="M121.5,135.1c-4.3-4.2-10.2-6.3-15.8-6.3c-14.4,0-21.7,10.5-21.6,21.8
		c0,11.6,7.4,21.5,21.6,21.5c5.3,0,10.7-1.8,14.9-5.7v-13.7h-17.1v-3.3h20.7v18.3c-5.1,5.1-11.2,7.9-18.5,7.9
		c-16.7,0-25.3-11.6-25.3-25c-0.1-15.3,10.4-25.3,25.3-25.3c6.4,0,13,2.5,17.9,7.4L121.5,135.1z"/>
	<path display="inline" fill="#FFFFFF" d="M194.5,175h-5l-16.9-18.6h-13.4V175h-3.8v-49c7.2,0,14.4,0,21.6,0
		c10.6,0,16,7.6,16.1,15.3c0.1,8-5.2,15-15.9,15L194.5,175z M159.3,152.9h17.4c8.5,0,12.3-4.8,12.4-11.7c0.1-5.7-3.9-11.7-12-11.7
		h-17.8V152.9z"/>
	<path display="inline" fill="#FFFFFF" d="M226.2,148.6H255v3.4h-28.7v19.3h30.9v3.6h-34.7v-49h33.8v3.6h-30.1V148.6z"/>
	<path display="inline" fill="#FFFFFF" d="M325.8,135.1c-4.3-4.2-10.2-6.3-15.8-6.3c-14.4,0-21.7,10.5-21.6,21.8
		c0,11.6,7.4,21.5,21.6,21.5c5.3,0,10.7-1.8,14.9-5.7v-13.7h-17.1v-3.3h20.7v18.3c-5.1,5.1-11.2,7.9-18.5,7.9
		c-16.7,0-25.3-11.6-25.3-25c-0.1-15.3,10.4-25.3,25.3-25.3c6.4,0,13,2.5,17.9,7.4L325.8,135.1z"/>
	<path display="inline" fill="#FFFFFF" d="M125.7,230.5l-18.8,28.7h-1.3l-18.9-28.7V274H83v-49c1.8,0,2.7,0,4.5,0l18.8,28.6
		l18.6-28.6h4.6v49h-3.7V230.5z"/>
	<path display="inline" fill="#FFFFFF" d="M161.9,274v-49h3.7v49H161.9z"/>
	<path display="inline" fill="#FFFFFF" d="M201.9,225v45.4h27.6v3.6h-31.4v-49H201.9z"/>
	<path display="inline" fill="#FFFFFF" d="M262,247.6h28.7v3.4H262v19.3H293v3.6h-34.7v-49h33.8v3.6H262V247.6z"/>
	<path display="inline" fill="#FFFFFF" d="M356.2,234.5c-3.6-5.7-9.3-6.6-14.8-6.7c-5.7,0-14.8,2.1-14.8,9.9c0,6.2,6.7,7.7,15,9.2
		c9.5,1.8,19.3,3.5,19.3,14.1c-0.1,11.1-11.2,13.7-19.4,13.7c-7.6,0-16.3-3.2-20.1-10.6l3.4-1.7c3,6,10.7,8.9,16.7,8.9
		S357,269.7,357,261c0.1-7.4-8.1-9-16.1-10.5c-9-1.8-18.1-3.6-18.1-12.6c-0.2-10.4,10.6-13.6,18.6-13.6c7,0,13.1,1.1,17.9,8.3
		L356.2,234.5z"/>
	<path display="inline" fill="#FFFFFF" d="M123.4,366.2c-4.9,4.9-11.4,7.4-17.9,7.4c-16.5,0-25.1-11.6-25.2-24.8
		c-0.1-13.1,8.4-25.3,25.2-25.3c6.4,0,13,2.5,17.9,7.4l-2.6,2.2c-4.2-4.2-9.7-6.2-15.3-6.2c-14.3,0-21.6,10.1-21.6,21.8
		c0.1,11.5,7.4,21.4,21.6,21.4c5.5,0,11.1-2.1,15.3-6.2L123.4,366.2z"/>
	<path display="inline" fill="#FFFFFF" d="M201.2,348.6c-0.1,12.9-8.3,25.3-24.7,25.3s-24.7-12.5-24.7-25.4
		c0-13.2,8.2-25.2,24.7-25.2C193,323.3,201.3,335.4,201.2,348.6z M155.5,348.5c0.1,11.1,7.1,21.8,21,21.8c14,0,21.1-10.8,21.1-21.8
		c0-11.3-7-21.8-21.1-21.8S155.4,337,155.5,348.5z"/>
	<path display="inline" fill="#FFFFFF" d="M266.9,373v-22.3h-31.2V373h-3.8v-49h3.8v23.3h31.2V324h3.8v49H266.9z"/>
	<path display="inline" fill="#FFFFFF" d="M306.9,346.6h28.7v3.4h-28.7v19.3h30.9v3.6h-34.7v-49H337v3.6h-30.1V346.6z"/>
	<path display="inline" fill="#FFFFFF" d="M371,324l33,40.5V324h3.7v49h-1.5l-33-40.5V373h-3.8v-49H371z"/>
</g>
<g display="none">
</g>
<g>
	<path fill="#FFFFFF" d="M104.1,131.5c-3.5-3.3-8.7-5.2-13.2-5.2c-11.1,0-17.8,8.4-17.8,19.1c0,8.5,5,17.3,17.8,17.3
		c4.1,0,7.6-0.9,11.7-4.1v-9.2H89.4v-8.7h22.2v21.8c-5.1,5.8-11.5,9.3-20.6,9.3c-19.5,0-27.4-12.8-27.4-26.4c0-14.6,9.1-28,27.4-28
		c7,0,13.9,2.7,19.2,7.9L104.1,131.5z"/>
	<path fill="#FFFFFF" d="M187.7,170.7h-11.6L161,153.4h-9.4v17.3h-9.8v-51.9c8.2,0,16.4,0.1,24.6,0.1c12.2,0.1,18.6,8.2,18.6,17.2
		c0,7.1-3.3,14.3-13.1,16.3l15.7,17.7V170.7z M151.6,128v16.6h14.9c6.2,0,8.9-4.1,8.9-8.3c0-4.1-2.7-8.3-8.9-8.3H151.6z"/>
	<path fill="#FFFFFF" d="M253.3,170.7h-38.8c0-17.2,0-34.6,0-51.8h38.8v9.5h-29.1v11.9h28v9.1h-28v11.7h29.1V170.7z"/>
	<path fill="#FFFFFF" d="M322.3,131.5c-3.5-3.3-8.7-5.2-13.2-5.2c-11.1,0-17.8,8.4-17.8,19.1c0,8.5,5,17.3,17.8,17.3
		c4.1,0,7.6-0.9,11.7-4.1v-9.2h-13.2v-8.7h22.2v21.8c-5.1,5.8-11.5,9.3-20.6,9.3c-19.5,0-27.4-12.8-27.4-26.4c0-14.6,9.1-28,27.4-28
		c7,0,13.9,2.7,19.2,7.9L322.3,131.5z"/>
	<path fill="#FFFFFF" d="M110.8,237l-16.9,22.5H92l-16.5-22.6v37.7h-9.8v-51.8h11.2L93.2,245l16.2-22.3h11.2v51.8h-9.8V237z"/>
	<path fill="#FFFFFF" d="M152.7,274.5v-51.8h9.7v51.8H152.7z"/>
	<path fill="#FFFFFF" d="M204.3,222.7v42.8h26.6v9h-36.4v-51.8H204.3z"/>
	<path fill="#FFFFFF" d="M299.4,274.5h-38.8c0-17.2,0-34.6,0-51.8h38.8v9.5h-29.1v11.9h28v9.1h-28v11.7h29.1V274.5z"/>
	<path fill="#FFFFFF" d="M363.4,235.2c-1.8-3-6.7-5.8-12.3-5.8c-7.3,0-10.7,3-10.7,6.9c0,4.5,5.3,5.8,11.5,6.5
		c10.8,1.3,20.9,4.1,20.9,16.5c0,11.5-10.2,16.5-21.8,16.5c-10.6,0-18.7-3.3-22.6-12.7l8.1-4.2c2.3,5.7,8.3,8.2,14.6,8.2
		c6.1,0,11.9-2.1,11.9-7.8c0-4.9-5.1-6.9-12-7.6c-10.6-1.3-20.4-4.1-20.4-15.7c0-10.7,10.5-15,20.1-15.1c8.1,0,16.4,2.3,20.4,10.3
		L363.4,235.2z"/>
	<path fill="#FFFFFF" d="M111.3,371.8c-5.3,5.3-12.2,7.7-19.7,7.7c-19.2,0-27.4-13.2-27.5-26.7c-0.1-13.5,8.7-27.3,27.5-27.3
		c7,0,13.7,2.7,19,7.9l-6.5,6.3c-3.4-3.3-8-4.9-12.5-4.9c-12.5,0-17.9,9.3-17.8,18c0.1,8.6,5,17.5,17.8,17.5c4.5,0,9.6-1.9,13-5.3
		L111.3,371.8z"/>
	<path fill="#FFFFFF" d="M190.6,352.7c-0.1,13.4-8.4,26.8-26.6,26.8c-18.2,0-26.6-13.1-26.6-26.7c0-13.6,8.7-27.3,26.6-27.3
		C181.9,325.4,190.8,339.1,190.6,352.7z M147,352.9c0.2,8.5,4.8,17.6,17,17.6c12.2,0,16.8-9.2,16.9-17.7c0.1-8.7-4.7-18.5-16.9-18.5
		C151.8,334.3,146.8,344.2,147,352.9z"/>
	<path fill="#FFFFFF" d="M256,378.3v-20.9h-25.5v20.9h-9.8v-51.8h9.8v21.8H256v-21.8h9.7v51.8H256z"/>
	<path fill="#FFFFFF" d="M336.5,378.3h-38.8c0-17.2,0-34.6,0-51.8h38.8v9.5h-29.1v11.9h28v9.1h-28v11.7h29.1V378.3z"/>
	<path fill="#FFFFFF" d="M402.5,326.4h9.8v51.9h-6.1v0.1l-27.2-35v34.9h-9.8v-51.8h7.9l25.4,32.1V326.4z"/>
</g>
</svg>
