<?xml version="1.0" encoding="utf-8"?>
<!-- Generator: Adobe Illustrator 19.0.1, SVG Export Plug-In . SVG Version: 6.00 Build 0)  -->
<svg version="1.1" id="Layer_1" xmlns="http://www.w3.org/2000/svg" xmlns:xlink="http://www.w3.org/1999/xlink" x="0px" y="0px"
	 viewBox="0 0 2000 2000" enable-background="new 0 0 2000 2000" xml:space="preserve">
<rect display="none" stroke="#000000" stroke-miterlimit="10" width="2000" height="2000"/>
<circle fill="none" stroke="#FFFFFF" stroke-width="18" stroke-miterlimit="10" cx="1000" cy="1000" r="975.3"/>
<path display="none" fill="#FFFFFF" d="M673.6,1394.4L673.6,1394.4c3.1,0,5.6-2.5,5.6-5.6V611.1c0-3.1-2.5-5.6-5.6-5.6h0
	c-3.1,0-5.6,2.5-5.6,5.6v777.8C668.1,1391.9,670.6,1394.4,673.6,1394.4z"/>
<path display="none" fill="#FFFFFF" d="M1326.4,1394.4L1326.4,1394.4c3.1,0,5.6-2.5,5.6-5.6V611.1c0-3.1-2.5-5.6-5.6-5.6l0,0
	c-3.1,0-5.6,2.5-5.6,5.6v777.8C1320.8,1391.9,1323.3,1394.4,1326.4,1394.4z"/>
<g>
	<path fill="#FFFFFF" d="M330.4,1112.3h-14.5v-11.9l50.9-6.7v16.7c0,18.6,13.4,28.2,42.3,28.2c40.8,0,62-13,62-31.2
		c0-17.8-9.7-27.5-40.1-27.5c-7.4,0-37.5,1.1-46.8,1.1c-26.7,0-41.2-15.6-41.2-33.4c0-12.3,9.3-34.2,38.6-35.6
		c-23.4-6.7-36.4-26-36.4-49.4c0-30.4,29.3-57.5,67.6-57.5c18.9,0,34.2,4.5,45.7,14.9c11.1-10.4,22.3-20.8,37.5-20.8
		c10,0,18.6,7.8,18.6,18.9c0,10.4-6.3,18.6-14.8,18.6c-9.3,0-16-5.6-16-12.6c0-1.9-1.5-4.1-3-4.1c-2.2,0-10.8,3.3-13.4,8.2
		c6.3,6.7,12.6,20.8,12.6,36.4c0,28.6-26.4,57.2-63.9,57.2c-8.5,0-13-0.4-17.1-0.4c-26,0-33.8,5.2-33.8,16.3c0,10,7.8,13,19.3,13
		c12.6,0,44.5-1.5,61.6-1.5c35.6,0,49.4,23,49.4,43.8c0,28.6-22.6,59-83.2,59c-60.9,0-76.1-14.8-76.1-33.8
		C336.3,1114.9,333.7,1112.3,330.4,1112.3z M448.1,961.9c0-27.1-14.8-44.2-34.5-44.2c-19.7,0-34.2,14.5-34.2,45.7
		c0,29.3,12.3,45.7,33.8,45.7S448.1,991.6,448.1,961.9z"/>
	<path fill="#FFFFFF" d="M673.4,1160.9V795.2H692v365.7H673.4z"/>
	<path fill="#FFFFFF" d="M1065.8,1078.5v-14.1l22.6-1.5v-88.7c0-27.1-13.4-46.4-33.4-46.4c-20.4,0-39.4,17.8-39.4,56.1v66.8
		c0,8.5,2.2,12.3,11.5,12.6l23.4,1.1v14.1h-86.5v-14.1l21.9-1.5v-88.7c0-27.1-10.4-46.4-30.4-46.4c-22.3,0-41.2,21.2-41.2,56.1v66.8
		c0,9.7,3,12.3,11.5,12.6l22.6,1.1v14.1H862v-14.1l21.9-1.5V951.2c0-11.9-1.1-17.1-17.1-17.1h-18.6v-13.7c17.8,0,35.6-7.1,50.9-14.5
		h12.3v42c13.7-27.1,32.7-42,54.9-42c23.8,0,39,13.4,46,36.8c14.1-23.4,33-36.8,55.3-36.8c33,0,50.5,27.1,50.5,63.9v80.9
		c0,8.5,2.2,12.3,11.5,12.6l23.4,1.1v14.1H1065.8z"/>
	<path fill="#FFFFFF" d="M1307.5,1160.9V795.2h18.6v365.7H1307.5z"/>
	<path fill="#FFFFFF" d="M1492.4,996.8c0-54.2,34.5-93.6,84.3-93.6c33.8,0,54.9,24.1,54.9,43.8c0,13.7-8.9,25.2-20.4,25.2
		c-12.3,0-19.7-11.5-19.7-20c0-13,9.3-14.9,9.3-20.4c0-9.3-16.7-15.2-26-15.2c-33.4,0-47.9,33-47.9,75.4c0,44.5,14.9,74.2,49.4,74.2
		c22.3,0,39.4-15.2,46.4-38.6l12.6,3.7c-9.7,31.9-28.6,53.5-66.1,53.5C1523.9,1084.8,1492.4,1049.6,1492.4,996.8z"/>
</g>
</svg>
