<?xml version="1.0" encoding="utf-8"?>
<!-- Generator: Adobe Illustrator 18.1.1, SVG Export Plug-In . SVG Version: 6.00 Build 0)  -->
<svg version="1.1" id="Layer_1" xmlns:sketch="http://www.bohemiancoding.com/sketch/ns"
	 xmlns="http://www.w3.org/2000/svg" xmlns:xlink="http://www.w3.org/1999/xlink" x="0px" y="0px" viewBox="-63 70 22 11"
	 enable-background="new -63 70 22 11" xml:space="preserve">
<title></title>
<g id="miu">
	<g id="editor_list_view_hambuger_menu_outline_stroke">
		<g>
			<path id="path-1" d="M-62.4,70c-0.3,0-0.6,0.2-0.6,0.5c0,0.3,0.3,0.5,0.6,0.5h20.8c0.3,0,0.6-0.2,0.6-0.5c0-0.3-0.3-0.5-0.6-0.5
				H-62.4L-62.4,70z M-62.4,75c-0.3,0-0.6,0.2-0.6,0.5c0,0.3,0.3,0.5,0.6,0.5h20.8c0.3,0,0.6-0.2,0.6-0.5c0-0.3-0.3-0.5-0.6-0.5
				H-62.4L-62.4,75z M-62.4,80c-0.3,0-0.6,0.2-0.6,0.5c0,0.3,0.3,0.5,0.6,0.5h20.8c0.3,0,0.6-0.2,0.6-0.5c0-0.3-0.3-0.5-0.6-0.5
				H-62.4L-62.4,80z"/>
		</g>
		<g>
			<path id="path-1_1_" fill="none" d="M-62.4,70c-0.3,0-0.6,0.2-0.6,0.5c0,0.3,0.3,0.5,0.6,0.5h20.8c0.3,0,0.6-0.2,0.6-0.5
				c0-0.3-0.3-0.5-0.6-0.5H-62.4L-62.4,70z M-62.4,75c-0.3,0-0.6,0.2-0.6,0.5c0,0.3,0.3,0.5,0.6,0.5h20.8c0.3,0,0.6-0.2,0.6-0.5
				c0-0.3-0.3-0.5-0.6-0.5H-62.4L-62.4,75z M-62.4,80c-0.3,0-0.6,0.2-0.6,0.5c0,0.3,0.3,0.5,0.6,0.5h20.8c0.3,0,0.6-0.2,0.6-0.5
				c0-0.3-0.3-0.5-0.6-0.5H-62.4L-62.4,80z"/>
		</g>
	</g>
</g>
</svg>
