<?xml version="1.0" encoding="utf-8"?>
<!-- Generator: Adobe Illustrator 19.0.1, SVG Export Plug-In . SVG Version: 6.00 Build 0)  -->
<svg version="1.1" id="Layer_1" xmlns="http://www.w3.org/2000/svg" xmlns:xlink="http://www.w3.org/1999/xlink" x="0px" y="0px"
	 viewBox="-116 17 67 67" enable-background="new -116 17 67 67" xml:space="preserve">
<rect x="-105.2" y="29.8" fill="#FFFFFF" width="47.2" height="43.2"/>
<path fill="#517FA6" d="M-73.2,43.1L-73.2,43.1c0.5,0,1,0,1.5,0c0.6,0,1.2-0.6,1.2-1.2c0-1,0-1.9,0-2.9c0-0.7-0.5-1.2-1.2-1.2
	c-1,0-1.9,0-2.9,0c-0.7,0-1.2,0.6-1.2,1.2c0,1,0,1.9,0,2.9c0,0.1,0,0.3,0.1,0.4c0.2,0.5,0.6,0.8,1.2,0.8
	C-74.2,43.1-73.7,43.1-73.2,43.1z M-82.5,44.3c-3.4,0-6.1,2.7-6.2,6.1c0,3.5,2.7,6.2,6,6.3c3.5,0.1,6.2-2.7,6.3-6
	C-76.2,47.2-79,44.3-82.5,44.3z M-94.5,47.6L-94.5,47.6c0,4.6,0,9.1,0,13.6c0,0.6,0.6,1.2,1.2,1.2c7.2,0,14.3,0,21.5,0
	c0.7,0,1.2-0.6,1.2-1.2c0-4.5,0-9,0-13.5v-0.1h-2.9c0.4,1.3,0.5,2.7,0.4,4s-0.6,2.6-1.3,3.8c-0.7,1.2-1.6,2.1-2.8,2.9
	c-2.9,2-6.8,2.2-9.9,0.4c-1.6-0.9-2.8-2.1-3.7-3.7c-1.3-2.4-1.5-4.9-0.7-7.5C-92.5,47.6-93.5,47.6-94.5,47.6z M-70.3,65.8
	c0.2,0,0.3,0,0.5-0.1c1.2-0.3,2.3-1.3,2.5-2.6c0-0.1,0-0.3,0.1-0.4V38.3c0-0.1,0-0.3-0.1-0.4c-0.3-1.4-1.4-2.4-2.8-2.6
	c-0.1,0-0.1,0-0.2,0h-24.5c-0.1,0-0.3,0-0.4,0.1c-1.4,0.3-2.4,1.4-2.5,2.8c0,0.1,0,0.1,0,0.2v24.5c0,0.2,0,0.3,0.1,0.5
	c0.3,1.3,1.4,2.3,2.8,2.5c0.1,0,0.1,0,0.2,0L-70.3,65.8L-70.3,65.8z M-112.5,20.5h60v60h-60V20.5z"/>
</svg>
