<?xml version="1.0" encoding="utf-8"?>
<!-- Generator: Adobe Illustrator 19.0.1, SVG Export Plug-In . SVG Version: 6.00 Build 0)  -->
<svg version="1.1" id="Layer_1" xmlns="http://www.w3.org/2000/svg" xmlns:xlink="http://www.w3.org/1999/xlink" x="0px" y="0px"
	 viewBox="-116 17 67 67" enable-background="new -116 17 67 67" xml:space="preserve">
<rect x="-105.5" y="31.2" fill="#FFFFFF" width="48.5" height="41.5"/>
<path fill="#007AB9" d="M-66.2,65.1V53.4c0-6.3-3.4-9.2-7.8-9.2c-3.6,0-5.2,2-6.1,3.4v-2.9h-6.8c0.1,1.9,0,20.4,0,20.4h6.8V53.7
	c0-0.6,0-1.2,0.2-1.7c0.5-1.2,1.6-2.5,3.5-2.5c2.5,0,3.4,1.9,3.4,4.6v10.9H-66.2z M-94,41.9c2.4,0,3.8-1.6,3.8-3.5
	c0-2-1.5-3.5-3.8-3.5s-3.8,1.5-3.8,3.5C-97.8,40.4-96.4,41.9-94,41.9L-94,41.9z M-90.6,65.1V44.7h-6.8v20.4H-90.6z M-113,21h60v60
	h-60V21z"/>
</svg>
