<?xml version="1.0" encoding="utf-8"?>
<!-- Generator: Adobe Illustrator 18.1.1, SVG Export Plug-In . SVG Version: 6.00 Build 0)  -->
<svg version="1.1" id="Layer_1" xmlns="http://www.w3.org/2000/svg" xmlns:xlink="http://www.w3.org/1999/xlink" x="0px" y="0px"
	 viewBox="0 0 1000 1000" enable-background="new 0 0 1000 1000" xml:space="preserve">
<rect x="62.5" display="none" stroke="#231F20" stroke-miterlimit="10" width="875" height="1000"/>
<image display="none" overflow="visible" enable-background="new    " width="350" height="400" xlink:href="D7C9414192580C5F.png"  transform="matrix(2.5 0 0 2.5 62.5 0)">
</image>
<image display="none" overflow="visible" enable-background="new    " width="350" height="400" xlink:href="D7C9414192580C5D.png"  transform="matrix(2.5 0 0 2.5 62.5 -7.5)">
</image>
<g>
	<path d="M251,259.5h66.5v181.8l-22.5-4.5V425c-11.8,10.2-27,16.2-44,16.2c-36.8,0-66.5-29.8-66.5-66.5v-222
		c0-36.8,29.8-66.5,66.5-66.5s66.5,29.8,66.5,66.5v40.7l-26.5,3v-43.7c0-22-18-39.8-39.8-39.8s-39.8,18-39.8,39.8V375
		c0,22,18,39.8,39.8,39.8s39.8-18,39.8-39.8v-89h-40V259.5z"/>
	<path d="M493.8,436.2h-26.5V321.8c0-25-20-45-45-45H390v159.5h-26.5V91.5h58.8c39.2,0,71.5,32.2,71.5,71.5v42.5
		c0,24-12.2,45.5-30.2,58.2c18,13.2,30.2,34.2,30.2,58.2V436.2z M422.2,250.5c25,0,45-20,45-45V163c0-25-20-45-45-45H390v132.2h32.2
		V250.5z"/>
	<path d="M565.8,118v132.3h61.8v27.2h-61.8v132.2h87.8v26.5H539V91.5h110.2V118C649.2,118,565.8,118,565.8,118z"/>
	<path d="M750.5,259.5H817v181.8l-22.5-4.5V425c-11.8,10.2-27,16.2-44,16.2c-36.8,0-66.5-29.8-66.5-66.5v-222
		c0-36.8,29.8-66.5,66.5-66.5c36.8,0,66.5,29.8,66.5,66.5v40.7l-26.5,3v-43.7c0-22-18-39.8-39.7-39.8S711,131,711,152.8V375
		c0,22,18,39.8,39.8,39.8s39.7-18,39.7-39.8v-89h-39.7v-26.5H750.5z"/>
</g>
<g>
	<path d="M202,468.5c8,15.5,16,31,23.8,46.2c8,15.5,15.8,30.8,23.8,46.2c11.5-15.5,23-31,34.5-46.2c11.5-15.5,23-30.8,34.5-46.2
		L302,611.2h-4.5l9.8-85.5l4-33.5c0.2-1.5,0.5-2.8,0.5-4c0.2-1.2,0.2-2.8,0.5-4c-10.5,14.7-21.2,29.2-31.8,43.5
		s-21.2,28.8-32.3,43.2c-6-11.8-11.7-23.5-17.7-35c-5.8-11.5-11.8-23-17.8-35l-7.2-14l-1.5-3c-0.2,1.5-0.2,2.8-0.2,4s0,2.8-0.2,4
		L190,611.2h-4.5L202,468.5z"/>
	<path d="M399.5,474.8h4.5l-15.8,136.5h-4.5L399.5,474.8z"/>
	<path d="M467,611.2l15.8-136.5h4.5L472,606h63l-0.8,5.2H467z"/>
	<path d="M609.2,611.2L625,474.8h65.2l-0.8,5.2h-60.8l-7,59.8h54.8l-0.8,5.2H621l-7.2,60.8H677l-0.8,5.2h-67V611.2z"/>
	<path d="M820.8,485.5c-0.5,0.8-1,1.2-1.5,2c-0.5,0.8-1,1.5-1.5,2c-0.7-1-2-2.2-3-3.5c-1.2-1.2-2.8-2.2-4.5-3.5c-1.8-1-3.8-2-6-2.8
		c-2.2-0.8-4.7-1-7.8-1c-4,0-7.5,0.8-10.5,2.5c-3.2,1.8-5.7,4-8,6.8c-2.2,2.8-4,5.8-5.5,9.2c-1.5,3.5-2.2,7-2.8,10.8
		c-0.5,4-0.2,7.2,0.3,10c0.7,2.8,1.8,5,3.2,7c1.5,2,3.5,3.8,6,5.2s5,3,8,4.2c3.2,1.5,6.8,3,10.8,4.5c4,1.8,7.8,4,11.2,6.8
		c3.5,3,6.2,6.8,8.2,11.2c2,4.5,2.8,10.5,2,17.5c-0.8,5.8-2.2,11-4.5,15.5c-2.2,4.7-5.2,8.8-8.8,12s-7.2,5.8-11.8,7.5
		c-4.3,1.8-8.8,2.8-13.2,2.8c-4.2,0-7.8-0.8-11.2-2c-3.2-1.2-6.2-3-8.5-4.8c-2.5-2-4.5-3.8-6.2-5.8c-1.8-2-3-3.8-3.8-5.2l3.2-3.8
		c1.5,2,3,4,4.5,5.8c1.8,2,3.5,3.8,5.7,5.2c2,1.5,4.5,2.8,7.2,3.8c2.8,1,5.7,1.5,9,1.5c3.8,0,7.5-0.8,11.2-2.2
		c3.8-1.5,7-3.8,10.2-6.5c3-2.8,5.8-6.2,7.8-10c2-4,3.5-8.2,4-13c0.7-6,0.2-11-1.2-15c-1.8-4-4-7.2-7-9.8s-6.2-4.8-10-6.2
		s-7.2-3-10.5-4.2c-2.2-1-4.8-2.2-7.5-3.8s-5-3.2-7.2-5.5s-4-5-5.2-8.2s-1.8-7.5-1.5-12.5c0.2-4.2,1.2-8.5,2.8-13
		c1.5-4.2,3.5-8.2,6.2-11.8c2.8-3.5,6-6.2,10-8.5c4-2.2,8.5-3.3,13.5-3.3c4,0,8,0.8,11.8,2.5C813.2,478.2,817,481.2,820.8,485.5z"/>
</g>
<g>
	<path d="M268,727v-41c0-16.8-13.5-30.2-30.2-30.2s-30.2,13.5-30.2,30.2v168.5c0,16.8,13.5,30.2,30.2,30.2s30.2-13.5,30.2-30.2
		v-35.8h20.2v35.8c0,28-22.5,50.2-50.2,50.2s-50.2-22.5-50.2-50.2V686c0-28,22.5-50.2,50.2-50.2s50.2,22.5,50.2,50.2v38.8L268,727z"
		/>
	<path d="M318.8,686c0-28,22.5-50.2,50.2-50.2s50.2,22.5,50.2,50.2v168.5c0,28-22.5,50.2-50.2,50.2s-50.2-22.5-50.2-50.2V686z
		 M339,854.5c0,16.8,13.5,30.2,30.2,30.2s30.2-13.5,30.2-30.2V686c0-16.8-13.5-30.2-30.2-30.2c-16.8,0-30.2,13.5-30.2,30.2V854.5
		L339,854.5z"/>
	<path d="M557.2,639.5V901H537V780h-60.5v121h-20.2V639.5h20.2V760H537V639.5H557.2z"/>
	<path d="M616,659.5V760h47v20.5h-47v100.3h66.8V901H596V639.5h83.8v20.2H616V659.5z"/>
	<path d="M710.2,639.5h24.5l61.5,198.2h0.8V639.5h20.2V901H797l-65.8-209.2h-0.8V901h-20.2V639.5z"/>
</g>
<path fill="none" stroke="#000000" stroke-width="4" stroke-miterlimit="10" d="M865,938.8c-243.2,0-486.8,0-730,0v-888
	c243.2,0,486.5,0,730,0V938.8z"/>
</svg>
