<?xml version="1.0" encoding="utf-8"?>
<!-- Generator: Adobe Illustrator 19.0.1, SVG Export Plug-In . SVG Version: 6.00 Build 0)  -->
<svg version="1.1" id="Layer_1" xmlns="http://www.w3.org/2000/svg" xmlns:xlink="http://www.w3.org/1999/xlink" x="0px" y="0px"
	 viewBox="0 0 300 100" enable-background="new 0 0 300 100" xml:space="preserve">
<path fill="#FFFFFF" d="M300,100H0V0h300V100z M31.5,39.4c-3.7,0-7.5,0-11.2,0v23.8h4.5v-7h6.7C43.1,56.2,43.1,39.4,31.5,39.4z
	 M24.7,43.7h6.7c5.7,0,5.7,8.4,0,8.4h-6.7V43.7z M62.6,38.9c-8.2,0-12.2,6.3-12.2,12.5s3.9,12.3,12.2,12.3s12.1-6.2,12.2-12.3
	C74.9,45.2,70.8,38.9,62.6,38.9z M62.6,43c5.6,0,7.9,4.5,7.8,8.5c-0.1,3.9-2.2,8.1-7.8,8.1s-7.7-4.2-7.8-8.1
	C54.7,47.5,57,43,62.6,43z M107.4,62.9l-7.2-8.1c4.5-0.9,6-4.2,6-7.5c0-4.1-3-7.9-8.6-7.9c-3.8,0-7.5,0-11.3,0v23.8h4.5v-8h4.3
	l6.9,8h5.3V62.9z M97.6,43.6c2.8,0,4.1,1.9,4.1,3.8s-1.2,3.8-4.1,3.8h-6.8v-7.6H97.6z M124.6,63.2h4.5V43.5h7.5v-4.1
	c-6.9,0-12.7,0-19.6,0v4.1h7.5V63.2z M152,63.2v-8.8h11.9v-4.1H152v-6.5h12.6v-4.3h-17.1v23.8H152z M187.7,38.9
	c-8.2,0-12.2,6.3-12.2,12.5s3.9,12.3,12.2,12.3s12.1-6.2,12.2-12.3C200,45.2,195.9,38.9,187.7,38.9z M187.7,43
	c5.6,0,7.9,4.5,7.8,8.5c-0.1,3.9-2.2,8.1-7.8,8.1s-7.7-4.2-7.8-8.1C179.8,47.5,182.1,43,187.7,43z M211.4,39.4v23.8h16.7v-4.1h-12.2
	V39.4H211.4z M243.9,63.2V39.4h-4.5v23.8H243.9z M268.2,38.9c-8.2,0-12.2,6.3-12.2,12.5s3.9,12.3,12.2,12.3s12.1-6.2,12.2-12.3
	C280.5,45.2,276.4,38.9,268.2,38.9z M268.2,43c5.6,0,7.9,4.5,7.8,8.5c-0.1,3.9-2.2,8.1-7.8,8.1s-7.7-4.2-7.8-8.1
	C260.3,47.5,262.6,43,268.2,43z"/>
</svg>
