<?xml version="1.0" encoding="utf-8"?>
<!-- Generator: Adobe Illustrator 19.0.1, SVG Export Plug-In . SVG Version: 6.00 Build 0)  -->
<svg version="1.1" id="Layer_1" xmlns="http://www.w3.org/2000/svg" xmlns:xlink="http://www.w3.org/1999/xlink" x="0px" y="0px"
	 viewBox="0 0 300 100" enable-background="new 0 0 300 100" xml:space="preserve">
<rect x="1.4" y="2.3" fill="none" stroke="#FFFFFF" stroke-width="5" stroke-miterlimit="10" width="297" height="95.4"/>
<g>
	<path fill="#FFFFFF" d="M31.5,56.2h-6.7v7h-4.5V39.4c3.7,0,7.5,0,11.2,0C43.1,39.4,43.1,56.2,31.5,56.2z M24.7,52.1h6.7
		c5.7,0,5.7-8.4,0-8.4h-6.7V52.1z"/>
	<path fill="#FFFFFF" d="M74.8,51.4c-0.1,6.2-3.8,12.3-12.2,12.3s-12.2-6-12.2-12.3s4-12.5,12.2-12.5C70.8,38.9,74.9,45.2,74.8,51.4
		z M54.8,51.5c0.1,3.9,2.2,8.1,7.8,8.1s7.7-4.2,7.8-8.1c0.1-4-2.2-8.5-7.8-8.5S54.7,47.5,54.8,51.5z"/>
	<path fill="#FFFFFF" d="M107.4,63.2H102l-6.9-8h-4.3v8h-4.5V39.4c3.8,0,7.5,0,11.3,0c5.6,0,8.6,3.8,8.6,7.9c0,3.3-1.5,6.6-6,7.5
		l7.2,8.1V63.2z M90.8,43.6v7.6h6.8c2.9,0,4.1-1.9,4.1-3.8s-1.3-3.8-4.1-3.8H90.8z"/>
	<path fill="#FFFFFF" d="M124.6,43.5H117v-4.1c6.9,0,12.7,0,19.6,0v4.1h-7.5v19.7h-4.5V43.5z"/>
	<path fill="#FFFFFF" d="M147.5,63.2V39.4h17.1v4.3H152v6.5h11.9v4.1H152v8.8H147.5z"/>
	<path fill="#FFFFFF" d="M199.9,51.4c-0.1,6.2-3.8,12.3-12.2,12.3s-12.2-6-12.2-12.3s4-12.5,12.2-12.5
		C195.9,38.9,200,45.2,199.9,51.4z M179.9,51.5c0.1,3.9,2.2,8.1,7.8,8.1s7.7-4.2,7.8-8.1c0.1-4-2.2-8.5-7.8-8.5
		S179.8,47.5,179.9,51.5z"/>
	<path fill="#FFFFFF" d="M215.9,39.4v19.6h12.2v4.1h-16.7V39.4H215.9z"/>
	<path fill="#FFFFFF" d="M239.5,63.2V39.4h4.5v23.8H239.5z"/>
	<path fill="#FFFFFF" d="M280.4,51.4c-0.1,6.2-3.8,12.3-12.2,12.3s-12.2-6-12.2-12.3s4-12.5,12.2-12.5
		C276.4,38.9,280.5,45.2,280.4,51.4z M260.4,51.5c0.1,3.9,2.2,8.1,7.8,8.1s7.7-4.2,7.8-8.1c0.1-4-2.2-8.5-7.8-8.5
		S260.3,47.5,260.4,51.5z"/>
</g>
</svg>
