<?xml version="1.0" encoding="utf-8"?>
<!-- Generator: Adobe Illustrator 19.0.1, SVG Export Plug-In . SVG Version: 6.00 Build 0)  -->
<svg version="1.1" id="Layer_1" xmlns="http://www.w3.org/2000/svg" xmlns:xlink="http://www.w3.org/1999/xlink" x="0px" y="0px"
	 viewBox="0 0 600 100" enable-background="new 0 0 600 100" xml:space="preserve">
<rect x="303" y="2.3" fill="none" stroke="#FFFFFF" stroke-width="5" stroke-miterlimit="10" width="297" height="95.4"/>
<path fill="none" stroke="#FFFFFF" stroke-width="5" stroke-miterlimit="10" d="M300,97.7H3V2.3h297V97.7z M33,39.4
	c-3.7,0-7.5,0-11.2,0v23.8h4.5v-7H33C44.7,56.2,44.7,39.4,33,39.4z M26.3,43.7H33c5.7,0,5.7,8.4,0,8.4h-6.7V43.7z M64.2,38.9
	c-8.2,0-12.2,6.3-12.2,12.5s3.9,12.3,12.2,12.3s12.1-6.2,12.2-12.3C76.4,45.2,72.3,38.9,64.2,38.9z M64.2,43c5.6,0,7.9,4.5,7.8,8.5
	c-0.1,3.9-2.2,8.1-7.8,8.1s-7.7-4.2-7.8-8.1C56.2,47.5,58.5,43,64.2,43z M108.9,62.9l-7.2-8.1c4.5-0.9,6-4.2,6-7.5
	c0-4.1-3-7.9-8.6-7.9c-3.8,0-7.5,0-11.3,0v23.8h4.5v-8h4.3l6.9,8h5.3V62.9z M99.2,43.6c2.8,0,4.1,1.9,4.1,3.8s-1.2,3.8-4.1,3.8h-6.8
	v-7.6H99.2z M126.1,63.2h4.5V43.5h7.5v-4.1c-6.9,0-12.7,0-19.6,0v4.1h7.5V63.2z M153.5,63.2v-8.8h11.9v-4.1h-11.9v-6.5h12.6v-4.3
	H149v23.8H153.5z M189.3,38.9c-8.2,0-12.2,6.3-12.2,12.5s3.9,12.3,12.2,12.3s12.1-6.2,12.2-12.3C201.6,45.2,197.5,38.9,189.3,38.9z
	 M189.3,43c5.6,0,7.9,4.5,7.8,8.5c-0.1,3.9-2.2,8.1-7.8,8.1s-7.7-4.2-7.8-8.1C181.4,47.5,183.7,43,189.3,43z M213,39.4v23.8h16.7
	v-4.1h-12.2V39.4H213z M245.5,63.2V39.4h-4.5v23.8H245.5z M269.8,38.9c-8.2,0-12.2,6.3-12.2,12.5s3.9,12.3,12.2,12.3
	s12.1-6.2,12.2-12.3C282.1,45.2,278,38.9,269.8,38.9z M269.8,43c5.6,0,7.9,4.5,7.8,8.5c-0.1,3.9-2.2,8.1-7.8,8.1s-7.7-4.2-7.8-8.1
	C261.9,47.5,264.2,43,269.8,43z"/>
<g>
	<path fill="#FFFFFF" d="M332.7,56.2h-6.7v7h-4.5V39.4c3.7,0,7.5,0,11.2,0C344.3,39.4,344.3,56.2,332.7,56.2z M325.9,52.1h6.7
		c5.7,0,5.7-8.4,0-8.4h-6.7V52.1z"/>
	<path fill="#FFFFFF" d="M376,51.4c-0.1,6.2-3.8,12.3-12.2,12.3s-12.2-6-12.2-12.3s4-12.5,12.2-12.5C372,38.9,376,45.2,376,51.4z
		 M355.9,51.5c0.1,3.9,2.2,8.1,7.8,8.1s7.7-4.2,7.8-8.1c0.1-4-2.2-8.5-7.8-8.5S355.8,47.5,355.9,51.5z"/>
	<path fill="#FFFFFF" d="M408.5,63.2h-5.3l-6.9-8h-4.3v8h-4.5V39.4c3.8,0,7.5,0,11.3,0c5.6,0,8.6,3.8,8.6,7.9c0,3.3-1.5,6.6-6,7.5
		l7.2,8.1V63.2z M391.9,43.6v7.6h6.8c2.9,0,4.1-1.9,4.1-3.8s-1.3-3.8-4.1-3.8H391.9z"/>
	<path fill="#FFFFFF" d="M425.7,43.5h-7.5v-4.1c6.9,0,12.7,0,19.6,0v4.1h-7.5v19.7h-4.5V43.5z"/>
	<path fill="#FFFFFF" d="M448.7,63.2V39.4h17.1v4.3h-12.6v6.5h11.9v4.1h-11.9v8.8H448.7z"/>
	<path fill="#FFFFFF" d="M501.1,51.4c-0.1,6.2-3.8,12.3-12.2,12.3s-12.2-6-12.2-12.3s4-12.5,12.2-12.5
		C497.1,38.9,501.2,45.2,501.1,51.4z M481.1,51.5c0.1,3.9,2.2,8.1,7.8,8.1s7.7-4.2,7.8-8.1c0.1-4-2.2-8.5-7.8-8.5
		S481,47.5,481.1,51.5z"/>
	<path fill="#FFFFFF" d="M517.1,39.4v19.6h12.2v4.1h-16.7V39.4H517.1z"/>
	<path fill="#FFFFFF" d="M540.7,63.2V39.4h4.5v23.8H540.7z"/>
	<path fill="#FFFFFF" d="M581.6,51.4c-0.1,6.2-3.8,12.3-12.2,12.3s-12.2-6-12.2-12.3s4-12.5,12.2-12.5
		C577.6,38.9,581.7,45.2,581.6,51.4z M561.6,51.5c0.1,3.9,2.2,8.1,7.8,8.1s7.7-4.2,7.8-8.1c0.1-4-2.2-8.5-7.8-8.5
		S561.5,47.5,561.6,51.5z"/>
</g>
</svg>
