<?xml version="1.0" encoding="utf-8"?>
<!-- Generator: Adobe Illustrator 19.0.1, SVG Export Plug-In . SVG Version: 6.00 Build 0)  -->
<svg version="1.1" id="Layer_1" xmlns="http://www.w3.org/2000/svg" xmlns:xlink="http://www.w3.org/1999/xlink" x="0px" y="0px"
	 viewBox="0 0 300 100" enable-background="new 0 0 300 100" xml:space="preserve">
<rect x="1.4" y="2.3" fill="none" stroke="#FFFFFF" stroke-width="5" stroke-miterlimit="10" width="297" height="95.4"/>
<g>
	<path fill="#FFFFFF" d="M79.1,63.2h-5.3l-6.9-8h-4.3v8H58V39.4c3.8,0,7.5,0,11.3,0c5.6,0,8.6,3.8,8.6,7.9c0,3.3-1.5,6.6-6,7.5
		l7.2,8.1V63.2z M62.5,43.6v7.6h6.8c2.9,0,4.1-1.9,4.1-3.8s-1.3-3.8-4.1-3.8H62.5z"/>
	<path fill="#FFFFFF" d="M106.8,63.2H89c0-7.9,0-15.9,0-23.8h17.8v4.4H93.5v5.5h12.9v4.2H93.5v5.4h13.4V63.2z"/>
	<path fill="#FFFFFF" d="M133.8,45.2c-0.8-1.4-3.1-2.7-5.6-2.7c-3.3,0-4.9,1.4-4.9,3.2c0,2.1,2.4,2.7,5.3,3c5,0.6,9.6,1.9,9.6,7.6
		c0,5.3-4.7,7.6-10,7.6c-4.9,0-8.6-1.5-10.4-5.8l3.7-1.9c1.1,2.6,3.8,3.8,6.7,3.8c2.8,0,5.5-1,5.5-3.6c0-2.2-2.3-3.2-5.5-3.5
		c-4.9-0.6-9.3-1.9-9.3-7.2c0-4.9,4.8-6.9,9.2-6.9c3.7,0,7.5,1.1,9.3,4.7L133.8,45.2z"/>
	<path fill="#FFFFFF" d="M170.7,39.4v13.6c0,7-4.3,10.6-10.3,10.6c-5.7,0-10.6-3.5-10.6-10.6V39.4h4.5v13.6c0,4.3,2.4,6.6,6.2,6.6
		s5.8-2.5,5.8-6.6V39.4H170.7z"/>
	<path fill="#FFFFFF" d="M203.9,46l-7.8,10.3h-0.9l-7.6-10.4v17.3h-4.5V39.4h5.2l7.4,10.2l7.4-10.2h5.1v23.8h-4.5V46z"/>
	<path fill="#FFFFFF" d="M238.6,63.2h-17.8c0-7.9,0-15.9,0-23.8h17.8v4.4h-13.4v5.5h12.9v4.2h-12.9v5.4h13.4V63.2z"/>
</g>
</svg>
