<?xml version="1.0" encoding="utf-8"?>
<!-- Generator: Adobe Illustrator 19.0.1, SVG Export Plug-In . SVG Version: 6.00 Build 0)  -->
<svg version="1.1" id="Layer_1" xmlns="http://www.w3.org/2000/svg" xmlns:xlink="http://www.w3.org/1999/xlink" x="0px" y="0px"
	 viewBox="0 0 300 100" enable-background="new 0 0 300 100" xml:space="preserve">
<path fill="#FFFFFF" d="M300,100H0V0h300V100z M79.1,62.9l-7.2-8.1c4.5-0.9,6-4.2,6-7.5c0-4.1-3-7.9-8.6-7.9c-3.8,0-7.5,0-11.3,0
	v23.8h4.5v-8h4.3l6.9,8h5.3V62.9z M69.3,43.6c2.8,0,4.1,1.9,4.1,3.8s-1.2,3.8-4.1,3.8h-6.8v-7.6H69.3z M106.8,58.8H93.5v-5.4h12.9
	v-4.2H93.5v-5.5h13.4v-4.4H89c0,7.9,0,15.9,0,23.8h17.8V58.8z M137.4,43.3c-1.8-3.7-5.6-4.7-9.3-4.7c-4.4,0-9.2,2-9.2,6.9
	c0,5.3,4.5,6.6,9.3,7.2c3.2,0.3,5.5,1.3,5.5,3.5c0,2.6-2.7,3.6-5.5,3.6c-2.9,0-5.6-1.2-6.7-3.8l-3.7,1.9c1.8,4.4,5.5,5.8,10.4,5.8
	c5.3,0,10-2.3,10-7.6c0-5.7-4.6-7-9.6-7.6c-2.9-0.3-5.3-0.9-5.3-3c0-1.8,1.6-3.2,4.9-3.2c2.6,0,4.8,1.3,5.6,2.7L137.4,43.3z
	 M166.2,39.4v13.6c0,4.1-2.1,6.6-5.8,6.6s-6.2-2.3-6.2-6.6V39.4h-4.5v13.6c0,7.2,4.9,10.6,10.6,10.6c6,0,10.3-3.6,10.3-10.6V39.4
	H166.2z M203.9,63.2h4.5V39.4h-5.1l-7.4,10.2l-7.4-10.2h-5.2v23.8h4.5V45.9l7.6,10.4h0.9l7.8-10.3V63.2z M238.6,58.8h-13.4v-5.4
	h12.9v-4.2h-12.9v-5.5h13.4v-4.4h-17.8c0,7.9,0,15.9,0,23.8h17.8V58.8z"/>
</svg>
